<svg width="275" height="89" viewBox="0 0 275 89" fill="none" xmlns="http://www.w3.org/2000/svg">
<path d="M22.7048 76.9922C23.1434 79.8656 24.137 82.0542 24.7593 83.2065C25.043 83.7318 24.8732 84.386 24.3698 84.7071C23.8405 85.0449 23.1379 84.8911 22.799 84.3624C20.4054 80.6276 15.8451 73.3431 18.8118 59.1679C22.3872 42.0855 35.9043 41.5665 36.8415 25.7687C36.8415 25.7687 35.5176 33.2546 22.042 44.7617C11.3757 53.8699 14.1373 68.2968 14.1498 68.55C14.018 68.4038 5.64211 58.9529 9.11323 45.6048C12.9751 30.7541 33.6999 29.2419 35.8811 11.5293C35.8811 11.5293 52.4575 27.4047 47.5507 46.2738C44.3118 58.7288 33.9304 63.5761 26.5822 68.3437C23.7038 70.2109 22.1869 73.6006 22.7048 76.9922Z" fill="#F48120"/>
<path d="M73.9632 60.1115H105.579C105.579 66.7995 100.107 72.2715 93.4192 72.2715H61.8032V29.7115C61.8032 23.0235 67.2752 17.5515 73.9632 17.5515V60.1115ZM134.048 17.5515C149.172 17.5515 161.408 29.7875 161.408 44.9115C161.408 60.0355 149.172 72.2715 134.048 72.2715C118.924 72.2715 106.688 60.0355 106.688 44.9115C106.688 29.7875 118.924 17.5515 134.048 17.5515ZM134.048 60.1115C142.408 60.1115 149.248 53.3475 149.248 44.9115C149.248 36.5515 142.408 29.7115 134.048 29.7115C125.612 29.7115 118.848 36.5515 118.848 44.9115C118.848 53.3475 125.612 60.1115 134.048 60.1115ZM211.589 38.8315V65.2795C208.168 68.3195 204.064 70.5235 199.428 71.5875C197.452 72.0435 195.476 72.2715 193.348 72.2715C183.848 72.2715 175.488 67.4835 170.624 60.1115C167.66 55.7795 165.988 50.5355 165.988 44.9115C165.988 39.2875 167.66 34.0435 170.624 29.7115C174.424 24.0115 180.352 19.8315 187.268 18.2355C189.016 17.8555 190.764 17.6275 192.664 17.5515C192.892 17.5515 211.589 17.5515 211.589 17.5515C211.589 24.2395 205.965 29.7115 199.428 29.7115H192.816C184.684 30.0155 178.148 36.7035 178.148 44.9115C178.148 53.3475 184.988 60.1115 193.348 60.1115C195.552 60.1115 197.604 59.6555 199.428 58.8195V50.9915H187.268C187.268 44.3035 192.74 38.8315 199.428 38.8315H211.589ZM244.337 17.5515C259.461 17.5515 271.697 29.7875 271.697 44.9115C271.697 60.0355 259.461 72.2715 244.337 72.2715C229.213 72.2715 216.977 60.0355 216.977 44.9115C216.977 29.7875 229.213 17.5515 244.337 17.5515ZM244.337 60.1115C252.697 60.1115 259.537 53.3475 259.537 44.9115C259.537 36.5515 252.697 29.7115 244.337 29.7115C235.901 29.7115 229.137 36.5515 229.137 44.9115C229.137 53.3475 235.901 60.1115 244.337 60.1115Z" fill="#1183DA"/>
<rect x="125.993" y="36.7537" width="16" height="16" fill="#F48120"/>
<rect x="235.993" y="36.7537" width="16" height="16" fill="#F48120"/>
</svg>
