<svg width="61" height="61" viewBox="0 0 61 61" fill="none" xmlns="http://www.w3.org/2000/svg">
<ellipse cx="30" cy="30" rx="30" ry="30" transform="matrix(-1 0 0 1 60.4635 0.271484)" fill="#2C2C2C"/>
<path d="M37.2632 22.6985C36.3517 21.658 35.8495 20.3217 35.8498 18.9385H31.7298V35.4718C31.6981 36.3665 31.3203 37.214 30.6762 37.8357C30.0321 38.4575 29.1718 38.805 28.2765 38.8051C26.3832 38.8051 24.8098 37.2585 24.8098 35.3385C24.8098 33.0451 27.0232 31.3251 29.3032 32.0318V27.8185C24.7032 27.2051 20.6765 30.7785 20.6765 35.3385C20.6765 39.7785 24.3565 42.9385 28.2632 42.9385C32.4498 42.9385 35.8498 39.5385 35.8498 35.3385V26.9518C37.5205 28.1516 39.5263 28.7953 41.5832 28.7918V24.6718C41.5832 24.6718 39.0765 24.7918 37.2632 22.6985Z" fill="#F48120"/>
</svg>
