<svg width="61" height="61" viewBox="0 0 61 61" fill="none" xmlns="http://www.w3.org/2000/svg">
<ellipse cx="30" cy="30" rx="30" ry="30" transform="matrix(-1 0 0 1 60.4635 0.271484)" fill="#2C2C2C"/>
<g clip-path="url(#clip0_2_29)">
<path d="M31.1301 20.2715C32.2701 20.2715 33.4395 20.3008 34.5728 20.3488L35.9115 20.4128L37.1928 20.4888L38.3928 20.5702L39.4888 20.6555C40.6782 20.7465 41.7974 21.2541 42.6495 22.0889C43.5016 22.9237 44.032 24.0322 44.1475 25.2195L44.2008 25.7862L44.3008 26.9995C44.3941 28.2568 44.4635 29.6275 44.4635 30.9382C44.4635 32.2488 44.3941 33.6195 44.3008 34.8768L44.2008 36.0902C44.1835 36.2848 44.1661 36.4728 44.1475 36.6568C44.032 37.8443 43.5014 38.953 42.649 39.7878C41.7966 40.6227 40.6771 41.1301 39.4875 41.2208L38.3941 41.3048L37.1941 41.3875L35.9115 41.4635L34.5728 41.5275C33.4259 41.5773 32.2781 41.6031 31.1301 41.6048C29.9822 41.6031 28.8344 41.5773 27.6875 41.5275L26.3488 41.4635L25.0675 41.3875L23.8675 41.3048L22.7715 41.2208C21.5821 41.1298 20.4629 40.6222 19.6108 39.7874C18.7587 38.9526 18.2282 37.8441 18.1128 36.6568L18.0595 36.0902L17.9595 34.8768C17.8575 33.5663 17.8033 32.2526 17.7968 30.9382C17.7968 29.6275 17.8661 28.2568 17.9595 26.9995L18.0595 25.7862C18.0768 25.5915 18.0941 25.4035 18.1128 25.2195C18.2282 24.0324 18.7584 22.924 19.6103 22.0893C20.4621 21.2545 21.581 20.7468 22.7701 20.6555L23.8648 20.5702L25.0648 20.4888L26.3475 20.4128L27.6861 20.3488C28.8335 20.299 29.9817 20.2732 31.1301 20.2715ZM31.1301 22.9382C30.0301 22.9382 28.8981 22.9675 27.7968 23.0128L26.4928 23.0755L25.2408 23.1488L24.0648 23.2288L22.9875 23.3128C22.4213 23.353 21.8875 23.5923 21.4809 23.9885C21.0743 24.3846 20.8211 24.9118 20.7661 25.4768C20.6101 27.0888 20.4635 29.0955 20.4635 30.9382C20.4635 32.7808 20.6101 34.7875 20.7661 36.3995C20.8795 37.5622 21.8021 38.4662 22.9875 38.5635L24.0648 38.6462L25.2408 38.7262L26.4928 38.8008L27.7968 38.8635C28.8981 38.9088 30.0301 38.9382 31.1301 38.9382C32.2301 38.9382 33.3621 38.9088 34.4635 38.8635L35.7675 38.8008L37.0195 38.7275L38.1955 38.6475L39.2728 38.5635C39.839 38.5233 40.3727 38.284 40.7793 37.8878C41.1859 37.4917 41.4392 36.9645 41.4941 36.3995C41.6501 34.7875 41.7968 32.7808 41.7968 30.9382C41.7968 29.0955 41.6501 27.0888 41.4941 25.4768C41.4392 24.9118 41.1859 24.3846 40.7793 23.9885C40.3727 23.5923 39.839 23.353 39.2728 23.3128L38.1955 23.2302L37.0195 23.1502L35.7675 23.0755L34.4635 23.0128C33.353 22.965 32.2416 22.9401 31.1301 22.9382ZM28.4635 27.7048C28.4634 27.5745 28.4951 27.4461 28.556 27.3309C28.6168 27.2156 28.7048 27.117 28.8125 27.0435C28.9201 26.9701 29.0441 26.924 29.1736 26.9094C29.303 26.8947 29.4341 26.9119 29.5555 26.9595L29.6635 27.0128L35.2635 30.2448C35.375 30.3092 35.4693 30.3995 35.5385 30.5081C35.6076 30.6167 35.6495 30.7404 35.6607 30.8686C35.6718 30.9969 35.6518 31.1259 35.6024 31.2448C35.553 31.3637 35.4756 31.4689 35.3768 31.5515L35.2635 31.6315L29.6635 34.8648C29.5506 34.9302 29.4235 34.9669 29.2932 34.9719C29.1629 34.9769 29.0333 34.95 28.9158 34.8935C28.7983 34.8369 28.6964 34.7525 28.6189 34.6476C28.5415 34.5427 28.4909 34.4204 28.4715 34.2915L28.4635 34.1715V27.7048Z" fill="#F48120"/>
</g>
<defs>
<clipPath id="clip0_2_29">
<rect width="32" height="32" fill="white" transform="translate(15.13 14.9385)"/>
</clipPath>
</defs>
</svg>
