<svg width="61" height="61" viewBox="0 0 61 61" fill="none" xmlns="http://www.w3.org/2000/svg">
<ellipse cx="30" cy="30" rx="30" ry="30" transform="matrix(-1 0 0 1 60.4636 0.271484)" fill="#2C2C2C"/>
<path d="M31.1316 26.9381C30.0707 26.9381 29.0533 27.3595 28.3032 28.1096C27.553 28.8598 27.1316 29.8772 27.1316 30.9381C27.1316 31.9989 27.553 33.0164 28.3032 33.7665C29.0533 34.5166 30.0707 34.9381 31.1316 34.9381C32.1925 34.9381 33.2099 34.5166 33.96 33.7665C34.7102 33.0164 35.1316 31.9989 35.1316 30.9381C35.1316 29.8772 34.7102 28.8598 33.96 28.1096C33.2099 27.3595 32.1925 26.9381 31.1316 26.9381ZM31.1316 24.2714C32.8997 24.2714 34.5954 24.9738 35.8456 26.224C37.0959 27.4743 37.7983 29.17 37.7983 30.9381C37.7983 32.7062 37.0959 34.4019 35.8456 35.6521C34.5954 36.9024 32.8997 37.6047 31.1316 37.6047C29.3635 37.6047 27.6678 36.9024 26.4176 35.6521C25.1673 34.4019 24.4649 32.7062 24.4649 30.9381C24.4649 29.17 25.1673 27.4743 26.4176 26.224C27.6678 24.9738 29.3635 24.2714 31.1316 24.2714ZM39.7983 23.9381C39.7983 24.3801 39.6227 24.804 39.3101 25.1166C38.9976 25.4291 38.5736 25.6047 38.1316 25.6047C37.6896 25.6047 37.2657 25.4291 36.9531 25.1166C36.6405 24.804 36.4649 24.3801 36.4649 23.9381C36.4649 23.496 36.6405 23.0721 36.9531 22.7596C37.2657 22.447 37.6896 22.2714 38.1316 22.2714C38.5736 22.2714 38.9976 22.447 39.3101 22.7596C39.6227 23.0721 39.7983 23.496 39.7983 23.9381ZM31.1316 20.2714C27.8329 20.2714 27.2943 20.2807 25.7596 20.3487C24.7143 20.3981 24.0129 20.5381 23.3623 20.7914C22.8178 20.9913 22.3255 21.3118 21.9223 21.7287C21.505 22.1319 21.1841 22.6242 20.9836 23.1687C20.7303 23.8221 20.5903 24.5221 20.5423 25.5661C20.4729 27.0381 20.4636 27.5527 20.4636 30.9381C20.4636 34.2381 20.4729 34.7754 20.5409 36.3101C20.5903 37.3541 20.7303 38.0567 20.9823 38.7061C21.2089 39.2861 21.4756 39.7034 21.9183 40.1461C22.3676 40.5941 22.7849 40.8621 23.3583 41.0834C24.0169 41.3381 24.7183 41.4794 25.7583 41.5274C27.2303 41.5967 27.7449 41.6047 31.1303 41.6047C34.4303 41.6047 34.9676 41.5954 36.5023 41.5274C37.5449 41.4781 38.2463 41.3381 38.8983 41.0861C39.4423 40.8852 39.9343 40.5649 40.3383 40.1487C40.7876 39.7007 41.0556 39.2834 41.2769 38.7087C41.5303 38.0527 41.6716 37.3514 41.7196 36.3087C41.7889 34.8381 41.7969 34.3221 41.7969 30.9381C41.7969 27.6394 41.7876 27.1007 41.7196 25.5661C41.6703 24.5234 41.5289 23.8194 41.2769 23.1687C41.0759 22.6248 40.7557 22.1327 40.3396 21.7287C39.9366 21.3112 39.4443 20.9903 38.8996 20.7901C38.2463 20.5367 37.5449 20.3967 36.5023 20.3487C35.0316 20.2794 34.5183 20.2714 31.1316 20.2714ZM31.1316 17.6047C34.7543 17.6047 35.2063 17.6181 36.6289 17.6847C38.0476 17.7514 39.0156 17.9741 39.8649 18.3047C40.7449 18.6434 41.4863 19.1021 42.2276 19.8421C42.9056 20.5086 43.4302 21.3149 43.7649 22.2047C44.0943 23.0541 44.3183 24.0221 44.3849 25.4421C44.4476 26.8634 44.4649 27.3154 44.4649 30.9381C44.4649 34.5607 44.4516 35.0127 44.3849 36.4341C44.3183 37.8541 44.0943 38.8207 43.7649 39.6714C43.4311 40.5618 42.9064 41.3682 42.2276 42.0341C41.5609 42.7118 40.7547 43.2364 39.8649 43.5714C39.0156 43.9007 38.0476 44.1247 36.6289 44.1914C35.2063 44.2541 34.7543 44.2714 31.1316 44.2714C27.5089 44.2714 27.0569 44.2581 25.6343 44.1914C24.2156 44.1247 23.2489 43.9007 22.3983 43.5714C21.508 43.2374 20.7016 42.7127 20.0356 42.0341C19.3575 41.3676 18.8329 40.5613 18.4983 39.6714C18.1676 38.8221 17.9449 37.8541 17.8783 36.4341C17.8143 35.0127 17.7983 34.5607 17.7983 30.9381C17.7983 27.3154 17.8116 26.8634 17.8783 25.4421C17.9449 24.0207 18.1676 23.0554 18.4983 22.2047C18.8319 21.3143 19.3567 20.5078 20.0356 19.8421C20.7018 19.1637 21.5082 18.639 22.3983 18.3047C23.2476 17.9741 24.2143 17.7514 25.6343 17.6847C27.0569 17.6221 27.5089 17.6047 31.1316 17.6047Z" fill="#F48120"/>
</svg>
