<svg width="21" height="21" viewBox="0 0 21 21" fill="none" xmlns="http://www.w3.org/2000/svg">
<path d="M8.46363 12.1416L19.4636 1.1416M8.46363 12.1416L11.9636 19.1416C12.0075 19.2373 12.0779 19.3185 12.1666 19.3754C12.2552 19.4322 12.3583 19.4625 12.4636 19.4625C12.5689 19.4625 12.672 19.4322 12.7607 19.3754C12.8493 19.3185 12.9198 19.2373 12.9636 19.1416L19.4636 1.1416M8.46363 12.1416L1.46363 8.6416C1.36789 8.59773 1.28676 8.52729 1.22988 8.43865C1.173 8.35002 1.14276 8.24692 1.14276 8.1416C1.14276 8.03629 1.173 7.93318 1.22988 7.84455C1.28676 7.75592 1.36789 7.68548 1.46363 7.6416L19.4636 1.1416" stroke="#F48120" stroke-width="2" stroke-linecap="round" stroke-linejoin="round"/>
</svg>
